# Blender 3.4.1
# www.blender.org
mtllib blade_00.mtl
o Plane
v -0.000000 1.518077 0.166433
v 0.000000 -0.441365 0.289438
v -0.000000 1.518077 -0.166433
v 0.000000 -0.441365 -0.289438
v 0.000000 0.481485 0.339412
v -0.000000 0.481485 -0.339412
v -0.000000 0.996220 -0.271512
v -0.000000 0.996220 0.271512
v -0.000000 2.054825 -0.000000
v 0.000000 -0.441365 0.000000
v -0.000000 0.481485 0.000000
v -0.000000 0.996220 0.000000
vn 1.0000 -0.0000 -0.0000
vt 0.000000 0.000000
vt 1.000000 0.000000
vt 0.000000 1.000000
vt 1.000000 1.000000
vt 0.500000 0.000000
vt 0.500000 1.000000
vt 0.250000 1.000000
vt 0.250000 0.000000
vt 0.000000 0.500000
vt 1.000000 0.500000
vt 0.500000 0.500000
vt 0.250000 0.500000
s 0
f 11/11/1 10/10/1 4/4/1 6/6/1
f 12/12/1 11/11/1 6/6/1 7/7/1
f 9/9/1 12/12/1 7/7/1 3/3/1
f 1/1/1 8/8/1 12/12/1 9/9/1
f 8/8/1 5/5/1 11/11/1 12/12/1
f 5/5/1 2/2/1 10/10/1 11/11/1
f 12/12/1 7/7/1 8/8/1
