# Blender 3.4.1
# www.blender.org
mtllib apple2.mtl
o Esfera_geodésica
v -0.000000 -0.766860 -0.008635
v 0.723607 -0.447220 0.525725
v 0.000222 1.256474 -0.084946
v -0.276388 -0.447220 0.850649
v 0.017158 1.256474 -0.083278
v -0.894426 -0.447216 0.000000
v -0.276388 -0.447220 -0.850649
v 0.033444 1.256474 -0.078338
v 0.723607 -0.447220 -0.525725
v 0.329722 0.416220 1.014795
v 0.048452 1.256474 -0.070315
v -0.863238 0.416220 0.627172
v -0.863238 0.416220 -0.627172
v 0.061608 1.256474 -0.059519
v 0.329722 0.416220 -1.014795
v 1.067020 0.416215 0.000000
v 0.072404 1.256474 -0.046364
v -0.162456 -0.850654 0.499995
v 0.425323 -0.850654 0.309011
v 0.080426 1.256474 -0.031355
v 0.262869 -0.525738 0.809012
v 0.085366 1.256474 -0.015070
v 0.850648 -0.525736 0.000000
v 0.425323 -0.850654 -0.309011
v 0.087034 1.256474 0.001867
v -0.525730 -0.850652 0.000000
v -0.688189 -0.525736 0.499997
v 0.085366 1.256474 0.018803
v -0.162456 -0.850654 -0.499995
v -0.688189 -0.525736 -0.499997
v 0.262869 -0.525738 -0.809012
v 0.080426 1.256474 0.035088
v 0.951058 0.000000 0.309013
v 0.072404 1.256474 0.050097
v 0.951058 0.000000 -0.309013
v 0.000000 0.000000 1.000000
v 0.061608 1.256474 0.063252
v 0.587786 0.000000 0.809017
v -0.951058 0.000000 0.309013
v 0.048452 1.256474 0.074048
v -0.587786 0.000000 0.809017
v -0.587786 0.000000 -0.809017
v 0.033444 1.256474 0.082071
v -0.951058 0.000000 -0.309013
v 0.587786 0.000000 -0.809017
v 0.017158 1.256474 0.087011
v 0.000000 0.000000 -1.000000
v 0.820987 0.509887 0.596479
v -0.313593 0.509889 0.965123
v 0.000222 1.256474 0.088679
v -1.014793 0.509887 0.000000
v -0.313593 0.509889 -0.965123
v -0.016714 1.256474 0.087011
v 0.820987 0.509887 -0.596479
v 0.193804 0.840985 0.596477
v -0.033000 1.256474 0.082071
v 0.627178 0.840981 0.000000
v -0.048008 1.256474 0.074048
v -0.507395 0.840984 0.368640
v -0.507395 0.840984 -0.368640
v 0.193804 0.840985 -0.596477
v -0.061163 1.256474 0.063252
v -0.071960 1.256474 0.050097
v -0.079982 1.256474 0.035088
v -0.084922 1.256474 0.018803
v -0.086590 1.256474 0.001867
v -0.084922 1.256474 -0.015070
v -0.079982 1.256474 -0.031355
v -0.071960 1.256474 -0.046364
v -0.061163 1.256474 -0.059519
v -0.048008 1.256474 -0.070315
v -0.033000 1.256474 -0.078338
v -0.016714 1.256474 -0.083278
v 0.000222 1.043170 0.018527
v 0.008026 1.043170 0.019295
v 0.015529 1.043170 0.021572
v 0.022445 1.043170 0.025268
v 0.028506 1.043170 0.030242
v 0.033481 1.043170 0.036304
v 0.037177 1.043170 0.043219
v 0.039454 1.043170 0.050723
v 0.040222 1.043170 0.058527
v 0.039454 1.043170 0.066330
v 0.037177 1.043170 0.073834
v 0.033481 1.043170 0.080750
v 0.028506 1.043170 0.086811
v 0.022445 1.043170 0.091786
v 0.015529 1.043170 0.095482
v 0.008026 1.043170 0.097758
v 0.000222 1.043170 0.098527
v -0.007582 1.043170 0.097758
v -0.015085 1.043170 0.095482
v -0.022001 1.043170 0.091786
v -0.028062 1.043170 0.086811
v -0.033037 1.043170 0.080750
v -0.036733 1.043170 0.073834
v -0.039009 1.043170 0.066330
v -0.039778 1.043170 0.058527
v -0.039009 1.043170 0.050723
v -0.036733 1.043170 0.043219
v -0.033037 1.043170 0.036304
v -0.028062 1.043170 0.030242
v -0.022001 1.043170 0.025268
v -0.015085 1.043170 0.021572
v -0.007582 1.043170 0.019295
v 0.007129 0.758814 -0.062490
v 0.013770 0.758814 -0.060475
v 0.019890 0.758814 -0.057204
v 0.025255 0.758814 -0.052801
v 0.029658 0.758814 -0.047436
v 0.032929 0.758814 -0.041316
v 0.034944 0.758814 -0.034675
v 0.035624 0.758814 -0.027768
v 0.034944 0.758814 -0.020861
v 0.032929 0.758814 -0.014220
v 0.029658 0.758814 -0.008100
v 0.025255 0.758814 -0.002735
v 0.019890 0.758814 0.001668
v 0.013770 0.758814 0.004939
v 0.007129 0.758814 0.006954
v 0.000222 0.758814 0.007634
v -0.006685 0.758814 0.006954
v -0.013326 0.758814 0.004939
v -0.019446 0.758814 0.001668
v -0.024811 0.758814 -0.002735
v -0.029214 0.758814 -0.008100
v -0.032485 0.758814 -0.014220
v -0.034500 0.758814 -0.020861
v -0.035180 0.758814 -0.027768
v -0.034500 0.758814 -0.034675
v -0.032485 0.758814 -0.041316
v -0.029214 0.758814 -0.047436
v -0.024811 0.758814 -0.052801
v -0.019446 0.758814 -0.057204
v -0.013326 0.758814 -0.060475
v -0.006685 0.758814 -0.062490
v 0.000222 0.758814 -0.063170
v 0.017538 0.678291 0.006040
v 0.016000 0.677720 0.006885
v 0.022666 0.689164 -0.043385
v 0.022337 0.680332 0.002040
v 0.017499 0.688574 -0.047430
v 0.017840 0.688631 -0.047256
v 0.029304 0.684189 -0.008407
v 0.029538 0.688999 -0.033068
v 0.031861 0.687244 -0.020753
v 0.031182 0.685852 -0.014458
v 0.031308 0.688307 -0.027041
v 0.026314 0.682325 -0.002837
v 0.026618 0.689288 -0.038591
v -0.031307 0.685157 -0.020548
v -0.030801 0.687077 -0.026907
v -0.030765 0.683605 -0.015715
v -0.022306 0.691423 -0.043690
v -0.026217 0.690276 -0.038716
v -0.029085 0.688807 -0.033045
v -0.017500 0.692201 -0.047763
v -0.011993 0.692578 -0.050766
v -0.006005 0.692536 -0.052576
v 0.006435 0.691222 -0.052379
v 0.012385 0.690006 -0.050389
v 0.000222 0.692077 -0.053120
v -0.030619 0.683557 -0.014257
v -0.025855 0.681984 -0.002813
v -0.028800 0.682956 -0.008311
v -0.017118 0.679099 0.005996
v -0.005829 0.675371 0.010830
v -0.005358 0.675216 0.010883
v -0.011686 0.677305 0.008969
v -0.021906 0.680680 0.002019
v 0.000222 0.674819 0.011451
v 0.001406 0.674662 0.011341
v 0.006278 0.675870 0.010807
v 0.012126 0.677087 0.008980
vn -0.0586 -0.9818 -0.1805
vn 0.7002 -0.6617 0.2680
vn 0.1546 -0.9816 -0.1123
vn 0.1582 -0.9807 0.1149
vn -0.0609 -0.9804 0.1873
vn 0.9050 -0.3304 0.2680
vn 0.0247 -0.3304 0.9435
vn -0.8897 -0.3304 0.3151
vn -0.5746 -0.3304 -0.7488
vn 0.5346 -0.3304 -0.7779
vn 0.8026 -0.1256 0.5831
vn -0.3066 -0.1256 0.9435
vn -0.9921 -0.1256 -0.0000
vn -0.3066 -0.1256 -0.9435
vn 0.8026 -0.1256 -0.5831
vn 0.3741 0.7087 0.5981
vn -0.4532 0.7087 0.5407
vn -0.6542 0.7087 -0.2639
vn 0.0489 0.7087 -0.7038
vn 0.6844 0.7087 -0.1710
vn -0.2518 0.9503 0.1829
vn 0.4421 0.8375 -0.3212
vn 0.3741 0.7087 -0.5981
vn 0.0957 0.9508 0.2947
vn -0.1689 0.8375 -0.5197
vn -0.4532 0.7087 -0.5407
vn 0.3135 0.9496 -0.0000
vn -0.5465 0.8375 -0.0000
vn -0.6542 0.7087 0.2639
vn 0.0981 0.9483 -0.3018
vn -0.1689 0.8375 0.5197
vn 0.0489 0.7087 0.7038
vn -0.2555 0.9488 -0.1857
vn 0.4421 0.8375 0.3212
vn 0.6844 0.7087 0.1710
vn 0.9255 0.0229 -0.3781
vn 0.8028 -0.1240 -0.5832
vn 0.6456 0.0229 -0.7633
vn -0.0736 0.0229 -0.9970
vn -0.3066 -0.1240 -0.9437
vn -0.5265 0.0229 -0.8499
vn -0.9710 0.0229 -0.2381
vn -0.9923 -0.1240 -0.0000
vn -0.9710 0.0229 0.2381
vn -0.5265 0.0229 0.8499
vn -0.3066 -0.1240 0.9437
vn -0.0736 0.0229 0.9970
vn 0.6456 0.0229 0.7633
vn 0.8028 -0.1240 0.5832
vn 0.9255 0.0229 0.3781
vn 0.2977 -0.2684 -0.9162
vn 0.3035 -0.1876 -0.9342
vn 0.0247 -0.3304 -0.9435
vn -0.7793 -0.2684 -0.5662
vn -0.7947 -0.1876 -0.5773
vn -0.8897 -0.3304 -0.3151
vn -0.7793 -0.2684 0.5662
vn -0.7947 -0.1876 0.5773
vn -0.5746 -0.3304 0.7488
vn 0.2977 -0.2684 0.9162
vn 0.3035 -0.1876 0.9342
vn 0.5346 -0.3304 0.7779
vn 0.9633 -0.2684 -0.0000
vn 0.9822 -0.1876 -0.0000
vn 0.9050 -0.3304 -0.2680
vn 0.4713 -0.6617 -0.5831
vn 0.1876 -0.7947 -0.5773
vn -0.0385 -0.6617 -0.7488
vn -0.4089 -0.6617 -0.6284
vn -0.4911 -0.7947 -0.3568
vn -0.7240 -0.6617 -0.1947
vn -0.7240 -0.6617 0.1947
vn -0.4911 -0.7947 0.3568
vn -0.4089 -0.6617 0.6284
vn 0.7002 -0.6617 -0.2680
vn 0.6071 -0.7947 -0.0000
vn -0.1933 -0.9811 -0.0000
vn -0.0385 -0.6617 0.7488
vn 0.1876 -0.7947 0.5773
vn 0.4713 -0.6617 0.5831
vn 0.0883 -0.4347 -0.8962
vn 0.2625 -0.4273 -0.8652
vn 0.4294 -0.4124 -0.8034
vn 0.5841 -0.3902 -0.7117
vn 0.7209 -0.3609 -0.5917
vn 0.8341 -0.3250 -0.4458
vn 0.9177 -0.2834 -0.2784
vn 0.9667 -0.2375 -0.0952
vn 0.9773 -0.1889 0.0963
vn 0.9475 -0.1399 0.2874
vn 0.8781 -0.0928 0.4694
vn 0.7720 -0.0498 0.6336
vn 0.6343 -0.0131 0.7729
vn 0.4713 0.0159 0.8818
vn 0.2901 0.0358 0.9563
vn 0.0979 0.0459 0.9941
vn -0.0979 0.0459 0.9941
vn -0.2901 0.0358 0.9563
vn -0.4713 0.0159 0.8818
vn -0.6343 -0.0131 0.7729
vn -0.7720 -0.0498 0.6336
vn -0.8781 -0.0928 0.4694
vn -0.9475 -0.1399 0.2874
vn -0.9773 -0.1889 0.0963
vn -0.9667 -0.2375 -0.0952
vn -0.9177 -0.2834 -0.2784
vn -0.8341 -0.3250 -0.4458
vn -0.7209 -0.3609 -0.5917
vn -0.5841 -0.3902 -0.7117
vn -0.4294 -0.4124 -0.8034
vn -0.0000 1.0000 -0.0000
vn -0.2625 -0.4273 -0.8652
vn -0.0883 -0.4347 -0.8962
vn -0.0942 0.2749 -0.9568
vn -0.2799 0.2645 -0.9228
vn -0.4572 0.2439 -0.8553
vn -0.6198 0.2135 -0.7552
vn -0.7613 0.1737 -0.6247
vn -0.8749 0.1260 -0.4676
vn -0.9545 0.0718 -0.2895
vn -0.9951 0.0137 -0.0980
vn -0.9941 -0.0458 0.0979
vn -0.9518 -0.1036 0.2887
vn -0.8710 -0.1572 0.4655
vn -0.7567 -0.2042 0.6210
vn -0.6154 -0.2432 0.7498
vn -0.4535 -0.2730 0.8484
vn -0.2775 -0.2930 0.9149
vn -0.0934 -0.3031 0.9484
vn 0.0934 -0.3031 0.9484
vn 0.2775 -0.2930 0.9149
vn 0.4535 -0.2730 0.8484
vn 0.6154 -0.2432 0.7498
vn 0.7567 -0.2042 0.6210
vn 0.8710 -0.1572 0.4655
vn 0.9518 -0.1036 0.2887
vn 0.9941 -0.0458 0.0979
vn 0.9951 0.0137 -0.0980
vn 0.9545 0.0718 -0.2895
vn 0.8749 0.1260 -0.4676
vn 0.7613 0.1737 -0.6247
vn 0.6198 0.2135 -0.7552
vn 0.4572 0.2439 -0.8553
vn 0.2799 0.2645 -0.9228
vn 0.0942 0.2749 -0.9568
vn 0.0969 -0.1482 -0.9842
vn 0.2872 -0.1446 -0.9469
vn 0.4669 -0.1375 -0.8736
vn 0.6293 -0.1271 -0.7667
vn 0.7680 -0.1138 -0.6303
vn 0.8777 -0.0981 -0.4691
vn 0.9538 -0.0805 -0.2893
vn 0.9933 -0.0618 -0.0978
vn 0.9943 -0.0427 0.0979
vn 0.9567 -0.0239 0.2902
vn 0.8819 -0.0061 0.4714
vn 0.7730 0.0099 0.6344
vn 0.6342 0.0234 0.7728
vn 0.4711 0.0341 0.8814
vn 0.2900 0.0414 0.9561
vn 0.0979 0.0452 0.9942
vn -0.0979 0.0452 0.9942
vn -0.2900 0.0414 0.9561
vn -0.4711 0.0341 0.8814
vn -0.6342 0.0234 0.7728
vn -0.7730 0.0099 0.6344
vn -0.8819 -0.0061 0.4714
vn -0.9567 -0.0239 0.2902
vn -0.9943 -0.0427 0.0979
vn -0.9933 -0.0618 -0.0978
vn -0.9538 -0.0805 -0.2893
vn -0.8777 -0.0981 -0.4691
vn -0.7680 -0.1138 -0.6303
vn -0.6293 -0.1271 -0.7667
vn -0.4669 -0.1375 -0.8736
vn -0.2872 -0.1446 -0.9469
vn -0.0969 -0.1482 -0.9842
vt 0.181819 0.000000
vt 0.909091 0.000000
vt 0.727273 0.000000
vt 0.545455 0.000000
vt 0.363637 0.000000
vt 0.272728 0.157461
vt 1.000000 1.000000
vt 0.250000 0.490000
vt 0.000000 1.000000
vt 1.000000 0.157461
vt 0.090910 0.157461
vt 0.968750 1.000000
vt 0.296822 0.485388
vt 0.818182 0.157461
vt 0.636364 0.157461
vt 0.937500 1.000000
vt 0.341844 0.471731
vt 0.454546 0.157461
vt 0.181819 0.314921
vt 0.906250 1.000000
vt 0.383337 0.449553
vt 0.000000 0.314921
vt 0.909091 0.314921
vt 0.727273 0.314921
vt 0.875000 1.000000
vt 0.419706 0.419706
vt 0.545455 0.314921
vt 0.363637 0.314921
vt 0.843750 1.000000
vt 0.449553 0.383337
vt 0.954545 0.078731
vt 0.136365 0.078731
vt 0.318182 0.078731
vt 0.227273 0.078731
vt 0.812500 1.000000
vt 0.471731 0.341844
vt 0.181819 0.157461
vt 0.781250 1.000000
vt 0.485388 0.296822
vt 0.363637 0.157461
vt 0.500000 0.078731
vt 0.409092 0.078731
vt 0.750000 1.000000
vt 0.490000 0.250000
vt 0.772727 0.078731
vt 0.863636 0.078731
vt 0.909091 0.157461
vt 0.718750 1.000000
vt 0.485388 0.203178
vt 0.590909 0.078731
vt 0.681818 0.078731
vt 0.727273 0.157461
vt 0.545455 0.157461
vt 0.687500 1.000000
vt 0.471731 0.158156
vt 0.318182 0.236191
vt 0.656250 1.000000
vt 0.449553 0.116663
vt 0.409092 0.236191
vt 0.136365 0.236191
vt 0.625000 1.000000
vt 0.419706 0.080294
vt 0.227273 0.236191
vt 0.863636 0.236191
vt 0.593750 1.000000
vt 0.383337 0.050447
vt 0.045455 0.236191
vt 0.954545 0.236191
vt 0.681818 0.236191
vt 0.562500 1.000000
vt 0.341844 0.028269
vt 0.772727 0.236191
vt 0.500000 0.236191
vt 0.531250 1.000000
vt 0.296822 0.014612
vt 0.590909 0.236191
vt 0.272728 0.314921
vt 0.090910 0.314921
vt 0.500000 1.000000
vt 0.250000 0.010000
vt 0.818182 0.314921
vt 0.636364 0.314921
vt 0.468750 1.000000
vt 0.203178 0.014612
vt 0.454546 0.314921
vt 0.136365 0.393651
vt 0.227273 0.393651
vt 0.437500 1.000000
vt 0.158156 0.028269
vt 0.409092 0.393651
vt 0.318182 0.393651
vt 0.406250 1.000000
vt 0.116663 0.050447
vt 0.863636 0.393651
vt 0.045455 0.393651
vt 0.681818 0.393651
vt 0.772727 0.393651
vt 0.500000 0.393651
vt 0.590909 0.393651
vt 0.375000 1.000000
vt 0.080294 0.080294
vt 0.343750 1.000000
vt 0.050447 0.116663
vt 0.312500 1.000000
vt 0.296822 0.485388
vt 0.281250 1.000000
vt 0.341844 0.471731
vt 0.250000 1.000000
vt 0.383337 0.449553
vt 0.218750 1.000000
vt 0.419706 0.419706
vt 0.187500 1.000000
vt 0.449553 0.383337
vt 0.156250 1.000000
vt 0.471731 0.341844
vt 0.125000 1.000000
vt 0.485388 0.296822
vt 0.093750 1.000000
vt 0.490000 0.250000
vt 0.485388 0.203178
vt 0.062500 1.000000
vt 0.471731 0.158156
vt 0.031250 1.000000
vt 0.000000 0.860238
vt 1.000000 0.860238
vt 0.968750 0.860238
vt 0.937500 0.860238
vt 0.906250 0.860238
vt 0.875000 0.860238
vt 0.843750 0.860238
vt 0.812500 0.860238
vt 0.781250 0.860238
vt 0.750000 0.860238
vt 0.718750 0.860238
vt 0.687500 0.860238
vt 0.656250 0.860238
vt 0.625000 0.860238
vt 0.593750 0.860238
vt 0.562500 0.860238
vt 0.531250 0.860238
vt 0.500000 0.860238
vt 0.468750 0.860238
vt 0.437500 0.860238
vt 0.406250 0.860238
vt 0.375000 0.860238
vt 0.343750 0.860238
vt 0.312500 0.860238
vt 0.281250 0.860238
vt 0.250000 0.860238
vt 0.218750 0.860238
vt 0.187500 0.860238
vt 0.156250 0.860238
vt 0.125000 0.860238
vt 0.093750 0.860238
vt 0.062500 0.860238
vt 0.031250 0.860238
vt 0.968750 0.687253
vt 0.937500 0.687253
vt 0.906250 0.687253
vt 0.875000 0.687253
vt 0.843750 0.687253
vt 0.812500 0.687253
vt 0.781250 0.687253
vt 0.750000 0.687253
vt 0.718750 0.687253
vt 0.687500 0.687253
vt 0.656250 0.687253
vt 0.625000 0.687253
vt 0.593750 0.687253
vt 0.562500 0.687253
vt 0.531250 0.687253
vt 0.500000 0.687253
vt 0.468750 0.687253
vt 0.437500 0.687253
vt 0.406250 0.687253
vt 0.375000 0.687253
vt 0.343750 0.687253
vt 0.312500 0.687253
vt 0.281250 0.687253
vt 0.250000 0.687253
vt 0.218750 0.687253
vt 0.187500 0.687253
vt 0.156250 0.687253
vt 0.125000 0.687253
vt 0.093750 0.687253
vt 0.062500 0.687253
vt 0.031250 0.687253
vt 1.000000 0.687253
vt 0.000000 0.687253
vt 0.453357 0.470106
vt 0.593750 0.637381
vt 0.453386 0.470374
vt 0.273888 0.470374
vt 0.584919 0.637028
vt 0.457870 0.464996
vt 0.875000 0.644116
vt 0.453399 0.469146
vt 0.625000 0.638646
vt 0.458650 0.465273
vt 0.632260 0.465273
vt 0.908189 0.643750
vt 0.458608 0.465247
vt 0.906250 0.643785
vt 0.453920 0.467334
vt 0.687500 0.641035
vt 0.456343 0.465074
vt 0.812500 0.644013
vt 0.454954 0.465898
vt 0.750000 0.642926
vt 0.454381 0.466552
vt 0.718750 0.642064
vt 0.455617 0.465398
vt 0.781250 0.643585
vt 0.453589 0.468210
vt 0.656250 0.639880
vt 0.457105 0.464937
vt 0.843750 0.644193
vt 0.639002 0.466879
vt 0.250000 0.641634
vt 0.638703 0.465977
vt 0.218750 0.642823
vt 0.639120 0.467608
vt 0.815426 0.467608
vt 0.273837 0.640673
vt 0.637075 0.463934
vt 0.125000 0.645515
vt 0.637721 0.464474
vt 0.156250 0.644804
vt 0.638271 0.465164
vt 0.187500 0.643894
vt 0.636357 0.463569
vt 0.093750 0.645997
vt 0.635598 0.463392
vt 0.062500 0.646230
vt 0.634826 0.463412
vt 0.031250 0.646204
vt 0.633373 0.464029
vt 0.968750 0.645390
vt 0.632749 0.464600
vt 0.937500 0.644637
vt 0.634075 0.463627
vt 1.000000 0.645920
vt 0.000000 0.645920
vt 0.815606 0.467631
vt 0.281250 0.640643
vt 0.817008 0.468370
vt 0.343750 0.639668
vt 0.816336 0.467913
vt 0.312500 0.640271
vt 0.818080 0.469726
vt 0.406250 0.637882
vt 0.818656 0.471478
vt 0.468750 0.635573
vt 0.818662 0.471551
vt 0.090430 0.471551
vt 0.471172 0.635477
vt 0.818437 0.470569
vt 0.437500 0.636771
vt 0.817597 0.468983
vt 0.375000 0.638861
vt 0.091105 0.471737
vt 0.500000 0.635231
vt 0.091240 0.471811
vt 0.272398 0.471811
vt 0.506124 0.635134
vt 0.272800 0.471243
vt 0.531250 0.635882
vt 0.273400 0.470671
vt 0.562500 0.636636
s 0
f 1/1/1 19/34/1 18/32/1
f 2/6/2 19/33/2 23/40/2
f 1/2/3 18/31/3 26/46/3
f 1/3/4 26/45/4 29/51/4
f 1/4/5 29/50/5 24/41/5
f 2/6/6 23/40/6 33/56/6
f 4/11/7 21/37/7 36/60/7
f 6/14/8 27/47/8 39/64/8
f 7/15/9 30/52/9 42/69/9
f 9/18/10 31/53/10 45/73/10
f 2/6/11 33/56/11 38/63/11
f 4/11/12 36/60/12 41/67/12
f 6/14/13 39/64/13 44/72/13
f 7/15/14 42/69/14 47/76/14
f 9/18/15 45/73/15 35/59/15
f 10/19/16 48/77/16 55/87/16
f 12/22/17 49/78/17 59/95/17
f 13/24/18 51/81/18 60/97/18
f 15/27/19 52/82/19 61/99/19
f 16/28/20 54/85/20 57/90/20
f 138/190/21 139/192/21 57/90/21 61/98/21 142/199/21 143/202/21 140/195/21 150/216/21 145/206/21 148/212/21 146/208/21 147/210/21 144/204/21 149/214/21 141/197/21
f 57/90/22 54/85/22 61/98/22
f 54/85/23 15/27/23 61/98/23
f 142/200/24 61/99/24 60/96/24 153/222/24 151/218/24 152/220/24 156/229/24 155/227/24 154/225/24 157/231/24 158/233/24 159/235/24 162/241/24 160/237/24 161/239/24
f 61/99/25 52/82/25 60/96/25
f 52/82/26 13/24/26 60/96/26
f 60/97/27 59/94/27 168/254/27 167/252/27 169/257/27 166/250/27 170/259/27 164/246/27 165/248/27 163/244/27 153/223/27
f 60/97/28 51/81/28 59/94/28
f 51/81/29 12/23/29 59/94/29
f 168/255/30 59/95/30 55/86/30 172/263/30 171/261/30
f 59/95/31 49/78/31 55/86/31
f 49/78/32 10/19/32 55/86/32
f 173/266/33 172/264/33 55/87/33 57/91/33 139/193/33 174/268/33
f 55/87/34 48/77/34 57/91/34
f 48/77/35 16/28/35 57/91/35
f 35/59/36 54/85/36 16/28/36
f 35/59/37 45/73/37 54/85/37
f 45/73/38 15/27/38 54/85/38
f 47/76/39 52/82/39 15/27/39
f 47/76/40 42/69/40 52/82/40
f 42/69/41 13/24/41 52/82/41
f 44/72/42 51/81/42 13/24/42
f 44/72/43 39/64/43 51/81/43
f 39/64/44 12/23/44 51/81/44
f 41/67/45 49/78/45 12/22/45
f 41/67/46 36/60/46 49/78/46
f 36/60/47 10/19/47 49/78/47
f 38/63/48 48/77/48 10/19/48
f 38/63/49 33/56/49 48/77/49
f 33/56/50 16/28/50 48/77/50
f 45/73/51 47/76/51 15/27/51
f 45/73/52 31/53/52 47/76/52
f 31/53/53 7/15/53 47/76/53
f 42/69/54 44/72/54 13/24/54
f 42/69/55 30/52/55 44/72/55
f 30/52/56 6/14/56 44/72/56
f 39/64/57 41/68/57 12/23/57
f 39/64/58 27/47/58 41/68/58
f 27/47/59 4/10/59 41/68/59
f 36/60/60 38/63/60 10/19/60
f 36/60/61 21/37/61 38/63/61
f 21/37/62 2/6/62 38/63/62
f 33/56/63 35/59/63 16/28/63
f 33/56/64 23/40/64 35/59/64
f 23/40/65 9/18/65 35/59/65
f 24/41/66 31/53/66 9/18/66
f 24/41/67 29/50/67 31/53/67
f 29/50/68 7/15/68 31/53/68
f 29/51/69 30/52/69 7/15/69
f 29/51/70 26/45/70 30/52/70
f 26/45/71 6/14/71 30/52/71
f 26/46/72 27/47/72 6/14/72
f 26/46/73 18/31/73 27/47/73
f 18/31/74 4/10/74 27/47/74
f 23/40/75 24/42/75 9/18/75
f 23/40/76 19/33/76 24/42/76
f 19/33/77 1/5/77 24/42/77
f 18/32/78 21/37/78 4/11/78
f 18/32/79 19/34/79 21/37/79
f 19/34/80 2/6/80 21/37/80
f 74/125/81 3/7/81 5/12/81 75/126/81
f 75/126/82 5/12/82 8/16/82 76/127/82
f 76/127/83 8/16/83 11/20/83 77/128/83
f 77/128/84 11/20/84 14/25/84 78/129/84
f 78/129/85 14/25/85 17/29/85 79/130/85
f 79/130/86 17/29/86 20/35/86 80/131/86
f 80/131/87 20/35/87 22/38/87 81/132/87
f 81/132/88 22/38/88 25/43/88 82/133/88
f 82/133/89 25/43/89 28/48/89 83/134/89
f 83/134/90 28/48/90 32/54/90 84/135/90
f 84/135/91 32/54/91 34/57/91 85/136/91
f 85/136/92 34/57/92 37/61/92 86/137/92
f 86/137/93 37/61/93 40/65/93 87/138/93
f 87/138/94 40/65/94 43/70/94 88/139/94
f 88/139/95 43/70/95 46/74/95 89/140/95
f 89/140/96 46/74/96 50/79/96 90/141/96
f 90/141/97 50/79/97 53/83/97 91/142/97
f 91/142/98 53/83/98 56/88/98 92/143/98
f 92/143/99 56/88/99 58/92/99 93/144/99
f 93/144/100 58/92/100 62/100/100 94/145/100
f 94/145/101 62/100/101 63/102/101 95/146/101
f 95/146/102 63/102/102 64/104/102 96/147/102
f 96/147/103 64/104/103 65/106/103 97/148/103
f 97/148/104 65/106/104 66/108/104 98/149/104
f 98/149/105 66/108/105 67/110/105 99/150/105
f 99/150/106 67/110/106 68/112/106 100/151/106
f 100/151/107 68/112/107 69/114/107 101/152/107
f 101/152/108 69/114/108 70/116/108 102/153/108
f 102/153/109 70/116/109 71/118/109 103/154/109
f 103/154/110 71/118/110 72/121/110 104/155/110
f 66/109/111 65/107/111 64/105/111 63/103/111 62/101/111 58/93/111 56/89/111 53/84/111 50/80/111 46/75/111 43/71/111 40/66/111 37/62/111 34/58/111 32/55/111 28/49/111 25/44/111 22/39/111 20/36/111 17/30/111 14/26/111 11/21/111 8/17/111 5/13/111 3/8/111 73/122/111 72/120/111 71/119/111 70/117/111 69/115/111 68/113/111 67/111/111
f 104/155/112 72/121/112 73/123/112 105/156/112
f 105/156/113 73/123/113 3/9/113 74/124/113
f 136/187/114 105/156/114 74/124/114 137/189/114
f 135/186/115 104/155/115 105/156/115 136/187/115
f 134/185/116 103/154/116 104/155/116 135/186/116
f 133/184/117 102/153/117 103/154/117 134/185/117
f 132/183/118 101/152/118 102/153/118 133/184/118
f 131/182/119 100/151/119 101/152/119 132/183/119
f 130/181/120 99/150/120 100/151/120 131/182/120
f 129/180/121 98/149/121 99/150/121 130/181/121
f 128/179/122 97/148/122 98/149/122 129/180/122
f 127/178/123 96/147/123 97/148/123 128/179/123
f 126/177/124 95/146/124 96/147/124 127/178/124
f 125/176/125 94/145/125 95/146/125 126/177/125
f 124/175/126 93/144/126 94/145/126 125/176/126
f 123/174/127 92/143/127 93/144/127 124/175/127
f 122/173/128 91/142/128 92/143/128 123/174/128
f 121/172/129 90/141/129 91/142/129 122/173/129
f 120/171/130 89/140/130 90/141/130 121/172/130
f 119/170/131 88/139/131 89/140/131 120/171/131
f 118/169/132 87/138/132 88/139/132 119/170/132
f 117/168/133 86/137/133 87/138/133 118/169/133
f 116/167/134 85/136/134 86/137/134 117/168/134
f 115/166/135 84/135/135 85/136/135 116/167/135
f 114/165/136 83/134/136 84/135/136 115/166/136
f 113/164/137 82/133/137 83/134/137 114/165/137
f 112/163/138 81/132/138 82/133/138 113/164/138
f 111/162/139 80/131/139 81/132/139 112/163/139
f 110/161/140 79/130/140 80/131/140 111/162/140
f 109/160/141 78/129/141 79/130/141 110/161/141
f 108/159/142 77/128/142 78/129/142 109/160/142
f 107/158/143 76/127/143 77/128/143 108/159/143
f 106/157/144 75/126/144 76/127/144 107/158/144
f 137/188/145 74/125/145 75/126/145 106/157/145
f 106/157/146 160/238/146 162/242/146 137/188/146
f 107/158/147 161/240/147 160/238/147 106/157/147
f 108/159/148 143/203/148 142/201/148 161/240/148 107/158/148
f 143/203/149 108/159/149 109/160/149 140/196/149
f 110/161/150 150/217/150 140/196/150 109/160/150
f 111/162/151 145/207/151 150/217/151 110/161/151
f 112/163/152 148/213/152 145/207/152 111/162/152
f 113/164/153 146/209/153 148/213/153 112/163/153
f 114/165/154 147/211/154 146/209/154 113/164/154
f 115/166/155 144/205/155 147/211/155 114/165/155
f 116/167/156 149/215/156 144/205/156 115/166/156
f 117/168/157 141/198/157 149/215/157 116/167/157
f 118/169/158 138/191/158 141/198/158 117/168/158
f 139/194/159 138/191/159 118/169/159 119/170/159 174/269/159
f 174/269/160 119/170/160 120/171/160 173/267/160
f 173/267/161 120/171/161 121/172/161 171/262/161 172/265/161
f 171/262/162 121/172/162 122/173/162 167/253/162 168/256/162
f 167/253/163 122/173/163 123/174/163 169/258/163
f 169/258/164 123/174/164 124/175/164 166/251/164
f 166/251/165 124/175/165 125/176/165 170/260/165
f 170/260/166 125/176/166 126/177/166 164/247/166
f 164/247/167 126/177/167 127/178/167 165/249/167
f 165/249/168 127/178/168 128/179/168 163/245/168
f 153/224/169 163/245/169 128/179/169 129/180/169 151/219/169
f 151/219/170 129/180/170 130/181/170 152/221/170
f 152/221/171 130/181/171 131/182/171 156/230/171
f 156/230/172 131/182/172 132/183/172 155/228/172
f 155/228/173 132/183/173 133/184/173 154/226/173
f 133/184/174 134/185/174 157/232/174 154/226/174
f 134/185/175 135/186/175 158/234/175 157/232/175
f 135/186/176 136/187/176 159/236/176 158/234/176
f 136/187/177 137/189/177 162/243/177 159/236/177
